<svg width="70" height="12" viewBox="0 0 70 12" fill="none" xmlns="http://www.w3.org/2000/svg">
<path d="M3.13582 12C2.50649 12 1.93049 11.856 1.40782 11.568C0.885154 11.28 0.46382 10.88 0.14382 10.368C0.0478203 10.208 -0.000179648 10.0586 -0.000179648 9.91997C-0.000179648 9.69597 0.0851537 9.5093 0.25582 9.35997C0.426487 9.21063 0.597154 9.13597 0.76782 9.13597C0.917154 9.13597 1.05049 9.17863 1.16782 9.26397C1.29582 9.33863 1.41315 9.43463 1.51982 9.55197C1.73315 9.8293 1.97315 10.0426 2.23982 10.192C2.50649 10.3306 2.80515 10.4 3.13582 10.4C3.51982 10.4 3.86649 10.3146 4.17582 10.144C4.48515 9.96263 4.73049 9.72263 4.91182 9.42397C5.09315 9.11463 5.18382 8.77863 5.18382 8.41597V1.45597C5.18382 1.2213 5.26915 1.0293 5.43982 0.879965C5.61049 0.719965 5.80782 0.639965 6.03182 0.639965C6.27715 0.639965 6.47449 0.719965 6.62382 0.879965C6.77315 1.0293 6.84782 1.2213 6.84782 1.45597V8.41597C6.84782 9.06663 6.68249 9.66397 6.35182 10.208C6.03182 10.752 5.58915 11.1893 5.02382 11.52C4.46915 11.84 3.83982 12 3.13582 12ZM17.0173 7.63197C17.0173 8.4853 16.8307 9.24263 16.4573 9.90397C16.084 10.5546 15.5773 11.0666 14.9373 11.44C14.2973 11.8133 13.5773 12 12.7773 12C11.9773 12 11.2573 11.8133 10.6173 11.44C9.97732 11.0666 9.46532 10.5546 9.08132 9.90397C8.70799 9.24263 8.52132 8.4853 8.52132 7.63197C8.52132 6.76797 8.70799 6.01063 9.08132 5.35997C9.46532 4.69863 9.97732 4.1813 10.6173 3.80797C11.2573 3.42397 11.9773 3.23197 12.7773 3.23197C13.5773 3.23197 14.2973 3.42397 14.9373 3.80797C15.5773 4.1813 16.084 4.69863 16.4573 5.35997C16.8307 6.01063 17.0173 6.76797 17.0173 7.63197ZM15.4173 7.63197C15.4173 7.0453 15.3 6.53863 15.0653 6.11197C14.8307 5.67463 14.5107 5.3333 14.1053 5.08797C13.7107 4.83197 13.268 4.70397 12.7773 4.70397C12.2867 4.70397 11.8387 4.83197 11.4333 5.08797C11.028 5.3333 10.708 5.67463 10.4733 6.11197C10.2387 6.53863 10.1213 7.0453 10.1213 7.63197C10.1213 8.1973 10.2387 8.69863 10.4733 9.13597C10.708 9.5733 11.028 9.91463 11.4333 10.16C11.8387 10.4053 12.2867 10.528 12.7773 10.528C13.268 10.528 13.7107 10.4053 14.1053 10.16C14.5107 9.91463 14.8307 9.5733 15.0653 9.13597C15.3 8.69863 15.4173 8.1973 15.4173 7.63197ZM22.7483 3.27997C23.4843 3.27997 24.055 3.43997 24.4603 3.75997C24.8657 4.0693 25.1483 4.49063 25.3083 5.02397C25.479 5.5573 25.5643 6.14397 25.5643 6.78397V11.024C25.5643 11.2586 25.4843 11.456 25.3243 11.616C25.175 11.7653 24.9883 11.84 24.7643 11.84C24.5297 11.84 24.3377 11.7653 24.1883 11.616C24.039 11.456 23.9643 11.2586 23.9643 11.024V6.78397C23.9643 6.41063 23.911 6.0693 23.8043 5.75997C23.7083 5.45063 23.5323 5.2053 23.2763 5.02397C23.031 4.84263 22.6843 4.75197 22.2363 4.75197C21.8203 4.75197 21.447 4.84263 21.1163 5.02397C20.7963 5.2053 20.5457 5.45063 20.3643 5.75997C20.1937 6.0693 20.1083 6.41063 20.1083 6.78397V11.024C20.1083 11.2586 20.0283 11.456 19.8683 11.616C19.719 11.7653 19.5323 11.84 19.3083 11.84C19.0737 11.84 18.8817 11.7653 18.7323 11.616C18.583 11.456 18.5083 11.2586 18.5083 11.024V0.815966C18.5083 0.581299 18.583 0.389299 18.7323 0.239965C18.8817 0.0799656 19.0737 -3.43323e-05 19.3083 -3.43323e-05C19.5323 -3.43323e-05 19.719 0.0799656 19.8683 0.239965C20.0283 0.389299 20.1083 0.581299 20.1083 0.815966V5.18397L19.8203 5.34397C19.895 5.1093 20.0177 4.8693 20.1883 4.62397C20.3697 4.37863 20.5883 4.15463 20.8443 3.95197C21.111 3.7493 21.4043 3.5893 21.7243 3.47197C22.0443 3.34397 22.3857 3.27997 22.7483 3.27997ZM31.8056 3.23197C32.5629 3.23197 33.1496 3.39197 33.5656 3.71197C33.9816 4.0213 34.2696 4.44263 34.4296 4.97597C34.6002 5.49863 34.6856 6.0853 34.6856 6.73597V11.024C34.6856 11.2586 34.6056 11.456 34.4456 11.616C34.2962 11.7653 34.1096 11.84 33.8856 11.84C33.6509 11.84 33.4589 11.7653 33.3096 11.616C33.1602 11.456 33.0856 11.2586 33.0856 11.024V6.75197C33.0856 6.36797 33.0322 6.02663 32.9256 5.72797C32.8189 5.41863 32.6322 5.1733 32.3656 4.99197C32.1096 4.79997 31.7469 4.70397 31.2776 4.70397C30.8402 4.70397 30.4562 4.79997 30.1256 4.99197C29.7949 5.1733 29.5336 5.41863 29.3416 5.72797C29.1602 6.02663 29.0696 6.36797 29.0696 6.75197V11.024C29.0696 11.2586 28.9896 11.456 28.8296 11.616C28.6802 11.7653 28.4936 11.84 28.2696 11.84C28.0349 11.84 27.8429 11.7653 27.6936 11.616C27.5442 11.456 27.4696 11.2586 27.4696 11.024V4.23997C27.4696 4.0053 27.5442 3.8133 27.6936 3.66397C27.8429 3.50397 28.0349 3.42397 28.2696 3.42397C28.4936 3.42397 28.6802 3.50397 28.8296 3.66397C28.9896 3.8133 29.0696 4.0053 29.0696 4.23997V5.13597L28.7816 5.29597C28.8562 5.0613 28.9842 4.82663 29.1656 4.59197C29.3576 4.34663 29.5869 4.12263 29.8536 3.91997C30.1202 3.70663 30.4189 3.5413 30.7496 3.42397C31.0802 3.29597 31.4322 3.23197 31.8056 3.23197ZM45.6162 0.639965C46.3949 0.639965 47.0829 0.789298 47.6802 1.08797C48.2775 1.37597 48.7735 1.7813 49.1682 2.30397C49.5735 2.81597 49.8775 3.4133 50.0802 4.09597C50.2829 4.76797 50.3842 5.48263 50.3842 6.23997C50.3842 7.27463 50.2029 8.21863 49.8402 9.07197C49.4775 9.91463 48.9442 10.5866 48.2402 11.088C47.5362 11.5893 46.6615 11.84 45.6162 11.84H41.7122C41.4882 11.84 41.2962 11.7653 41.1362 11.616C40.9762 11.456 40.8962 11.2586 40.8962 11.024V1.45597C40.8962 1.2213 40.9762 1.0293 41.1362 0.879965C41.2962 0.719965 41.4882 0.639965 41.7122 0.639965H45.6162ZM45.4562 10.304C46.2135 10.304 46.8269 10.1173 47.2962 9.74397C47.7655 9.37063 48.1069 8.87997 48.3202 8.27197C48.5442 7.6533 48.6562 6.97597 48.6562 6.23997C48.6562 5.69597 48.5922 5.18397 48.4642 4.70397C48.3469 4.2133 48.1549 3.7813 47.8882 3.40797C47.6322 3.02397 47.3015 2.7253 46.8962 2.51197C46.5015 2.28797 46.0215 2.17597 45.4562 2.17597H42.4322L42.5762 2.03197V10.464L42.4802 10.304H45.4562ZM60.0423 7.63197C60.0423 8.4853 59.8557 9.24263 59.4823 9.90397C59.109 10.5546 58.6023 11.0666 57.9623 11.44C57.3223 11.8133 56.6023 12 55.8023 12C55.0023 12 54.2823 11.8133 53.6423 11.44C53.0023 11.0666 52.4903 10.5546 52.1063 9.90397C51.733 9.24263 51.5463 8.4853 51.5463 7.63197C51.5463 6.76797 51.733 6.01063 52.1063 5.35997C52.4903 4.69863 53.0023 4.1813 53.6423 3.80797C54.2823 3.42397 55.0023 3.23197 55.8023 3.23197C56.6023 3.23197 57.3223 3.42397 57.9623 3.80797C58.6023 4.1813 59.109 4.69863 59.4823 5.35997C59.8557 6.01063 60.0423 6.76797 60.0423 7.63197ZM58.4423 7.63197C58.4423 7.0453 58.325 6.53863 58.0903 6.11197C57.8557 5.67463 57.5357 5.3333 57.1303 5.08797C56.7357 4.83197 56.293 4.70397 55.8023 4.70397C55.3117 4.70397 54.8637 4.83197 54.4583 5.08797C54.053 5.3333 53.733 5.67463 53.4983 6.11197C53.2637 6.53863 53.1463 7.0453 53.1463 7.63197C53.1463 8.1973 53.2637 8.69863 53.4983 9.13597C53.733 9.5733 54.053 9.91463 54.4583 10.16C54.8637 10.4053 55.3117 10.528 55.8023 10.528C56.293 10.528 56.7357 10.4053 57.1303 10.16C57.5357 9.91463 57.8557 9.5733 58.0903 9.13597C58.325 8.69863 58.4423 8.1973 58.4423 7.63197ZM65.4533 12C64.568 12 63.8 11.8186 63.1493 11.456C62.4987 11.0826 61.992 10.576 61.6293 9.93597C61.2773 9.2853 61.1013 8.54397 61.1013 7.71197C61.1013 6.7733 61.288 5.9733 61.6613 5.31197C62.0453 4.63997 62.5413 4.12797 63.1493 3.77597C63.7573 3.4133 64.4027 3.23197 65.0853 3.23197C65.608 3.23197 66.104 3.33863 66.5733 3.55197C67.0427 3.75463 67.4587 4.04263 67.8213 4.41597C68.1947 4.77863 68.488 5.21063 68.7013 5.71197C68.9147 6.20263 69.0267 6.7413 69.0373 7.32797C69.0267 7.5413 68.9413 7.7173 68.7813 7.85597C68.6213 7.99463 68.4347 8.06397 68.2213 8.06397H61.9973L61.6133 6.70397H67.6293L67.3253 6.99197V6.59197C67.304 6.21863 67.1813 5.8933 66.9573 5.61597C66.7333 5.32797 66.456 5.1093 66.1253 4.95997C65.7947 4.79997 65.448 4.71997 65.0853 4.71997C64.7653 4.71997 64.456 4.7733 64.1573 4.87997C63.8693 4.97597 63.608 5.13597 63.3733 5.35997C63.1493 5.58397 62.968 5.88263 62.8293 6.25597C62.7013 6.61863 62.6373 7.07197 62.6373 7.61597C62.6373 8.20263 62.76 8.71463 63.0053 9.15197C63.2507 9.5893 63.5813 9.93063 63.9973 10.176C64.4133 10.4106 64.872 10.528 65.3733 10.528C65.768 10.528 66.0933 10.4906 66.3493 10.416C66.6053 10.3306 66.8187 10.2293 66.9893 10.112C67.16 9.99463 67.3093 9.88263 67.4373 9.77597C67.5973 9.67997 67.7573 9.63197 67.9173 9.63197C68.1093 9.63197 68.2693 9.7013 68.3973 9.83997C68.5253 9.96797 68.5893 10.1226 68.5893 10.304C68.5893 10.5386 68.472 10.752 68.2373 10.944C67.9493 11.2213 67.5493 11.4666 67.0373 11.68C66.536 11.8933 66.008 12 65.4533 12Z" fill="#0A0D12"/>
</svg>
