<svg width="32" height="32" viewBox="0 0 32 32" fill="none" xmlns="http://www.w3.org/2000/svg">
<path d="M10.6665 10.6667V9.33333C10.6665 7.91885 11.2284 6.56229 12.2286 5.5621C13.2288 4.5619 14.5853 4 15.9998 4C17.4143 4 18.7709 4.5619 19.7711 5.5621C20.7713 6.56229 21.3332 7.91885 21.3332 9.33333V10.6667" stroke="#0A0D12" stroke-width="2" stroke-linecap="round"/>
<path fill-rule="evenodd" clip-rule="evenodd" d="M4.78133 10.1134C4 10.8947 4 12.1507 4 14.6654V18.6654C4 23.6934 4 26.208 5.56267 27.7694C7.12533 29.3307 9.63867 29.332 14.6667 29.332H17.3333C22.3613 29.332 24.876 29.332 26.4373 27.7694C27.9987 26.2067 28 23.6934 28 18.6654V14.6654C28 12.1507 28 10.8947 27.2187 10.1134C26.4373 9.33203 25.1813 9.33203 22.6667 9.33203H9.33333C6.81867 9.33203 5.56267 9.33203 4.78133 10.1134ZM13.3333 15.9987C13.3333 15.6451 13.1929 15.3059 12.9428 15.0559C12.6928 14.8058 12.3536 14.6654 12 14.6654C11.6464 14.6654 11.3072 14.8058 11.0572 15.0559C10.8071 15.3059 10.6667 15.6451 10.6667 15.9987V18.6654C10.6667 19.019 10.8071 19.3581 11.0572 19.6082C11.3072 19.8582 11.6464 19.9987 12 19.9987C12.3536 19.9987 12.6928 19.8582 12.9428 19.6082C13.1929 19.3581 13.3333 19.019 13.3333 18.6654V15.9987ZM21.3333 15.9987C21.3333 15.6451 21.1929 15.3059 20.9428 15.0559C20.6928 14.8058 20.3536 14.6654 20 14.6654C19.6464 14.6654 19.3072 14.8058 19.0572 15.0559C18.8071 15.3059 18.6667 15.6451 18.6667 15.9987V18.6654C18.6667 19.019 18.8071 19.3581 19.0572 19.6082C19.3072 19.8582 19.6464 19.9987 20 19.9987C20.3536 19.9987 20.6928 19.8582 20.9428 19.6082C21.1929 19.3581 21.3333 19.019 21.3333 18.6654V15.9987Z" fill="#0A0D12"/>
</svg>
